<svg xmlns="http://www.w3.org/2000/svg" width="960" height="54" viewBox="0 0 960 54"><rect x="0" y="4" width="92" height="40" rx="8" fill="#080e1c" stroke="#30425c"/><circle cx="16" cy="24" r="3" fill="#55e6f5"/><text x="28" y="29" font-family="Verdana,sans-serif" font-size="13" fill="#e6edf7">Python</text><rect x="103" y="4" width="102" height="40" rx="8" fill="#080e1c" stroke="#30425c"/><circle cx="119" cy="24" r="3" fill="#b995ff"/><text x="131" y="29" font-family="Verdana,sans-serif" font-size="13" fill="#e6edf7">PyTorch</text><rect x="216" y="4" width="90" height="40" rx="8" fill="#080e1c" stroke="#30425c"/><circle cx="232" cy="24" r="3" fill="#55e6f5"/><text x="244" y="29" font-family="Verdana,sans-serif" font-size="13" fill="#e6edf7">NumPy</text><rect x="317" y="4" width="96" height="40" rx="8" fill="#080e1c" stroke="#30425c"/><circle cx="333" cy="24" r="3" fill="#b995ff"/><text x="345" y="29" font-family="Verdana,sans-serif" font-size="13" fill="#e6edf7">MATLAB</text><rect x="424" y="4" width="86" height="40" rx="8" fill="#080e1c" stroke="#30425c"/><circle cx="440" cy="24" r="3" fill="#55e6f5"/><text x="452" y="29" font-family="Verdana,sans-serif" font-size="13" fill="#e6edf7">React</text><rect x="521" y="4" width="101" height="40" rx="8" fill="#080e1c" stroke="#30425c"/><circle cx="537" cy="24" r="3" fill="#b995ff"/><text x="549" y="29" font-family="Verdana,sans-serif" font-size="13" fill="#e6edf7">Next.js</text><rect x="633" y="4" width="131" height="40" rx="8" fill="#080e1c" stroke="#30425c"/><circle cx="649" cy="24" r="3" fill="#55e6f5"/><text x="661" y="29" font-family="Verdana,sans-serif" font-size="13" fill="#e6edf7">TypeScript</text><rect x="775" y="4" width="96" height="40" rx="8" fill="#080e1c" stroke="#30425c"/><circle cx="791" cy="24" r="3" fill="#b995ff"/><text x="803" y="29" font-family="Verdana,sans-serif" font-size="13" fill="#e6edf7">Django</text></svg>